<svg viewBox="0 0 44 24" xmlns="http://www.w3.org/2000/svg" data-di-res-id="4b33b652-6a2c02c3" data-di-rand="1701657991468">
    <g fill="none">
        <rect fill="#000" opacity=".07957" width="43.63636" height="24" rx="6"></rect>
        <path d="M37.0909 2.18182H6.54546c-2.40996 0-4.36363 1.95366-4.36363 4.36363v10.9091c0 2.40997 1.95367 4.36363 4.36363 4.36363h30.54546c2.40997 0 4.36364-1.95366 4.36364-4.36363V6.54545c0-2.40997-1.95367-4.36363-4.36364-4.36363Z" fill="#000"></path>
        <path d="M30.47438 13.59609c0 .02262-.0155.04027-.03288.04027h-4.4072c-.0357 0-.05448-.01048-.05965-.02648-.00517-.02427.00658-.04193.03241-.06344l4.38605-3.17114c.03054-.02151.08127-.0182.08127.05242v3.16837Zm2.21603-.03466-.95826-.00109c-.01912 0-.0349-.01746-.0349-.03819V9.85223c0-.56355-.34142-.7485-.82198-.41025l-5.76245 4.03762c-.22618.15875-.3022.3377-.2477.46972.04734.1151.17167.19421.42127.19421l5.3517.00055c.01483.00109.02678.0131.0306.02837v.51554c0 .02128.01483.03928.033.03928h.96256c.01817 0 .03348-.018.03348-.03928v-.50463c0-.02128.01578-.03928.03347-.03928h.95921c.01913 0 .03443-.018.03443-.03928v-.50518c0-.02128-.0153-.03819-.03443-.03819Zm-15.88936-4.2887h-5.42349c-.01789 0-.0321.01691-.0321.03764v.50683c0 .02128.01421.03764.03256.03764h5.09737c.43208 0 .63711.37044.63711.88382 0 .51392-.20457.88326-.63711.88326h-4.03276c-.62565 0-1.09718.62577-1.09718 1.45557v1.6116c0 .02182.01468.03818.03257.03818h.9192c.0179 0 .03211-.01691.03211-.03819v-1.6116c0-.51337.24907-.87235.60639-.87235h3.86533c.86967 0 1.29579-.63503 1.29579-1.46538 0-.82926-.42612-1.46702-1.29579-1.46702Zm9.1724.54436v-.50618c0-.02127-.0148-.03818-.03237-.03818h-3.02263c-.87683 0-1.30553.63763-1.30553 1.46672v2.52164c0 .51327-.20672.8831-.64282.8831h-2.84089c-.01803 0-.03237.0169-.03237.03817v.50673c0 .02127.01434.03818.03237.03818h3.16924c.87682 0 1.30645-.636 1.30645-1.46563v-2.52328c0-.51327.20672-.88309.6419-.88309h2.69428c.01804 0 .03238-.01745.03238-.03818Z" fill="#FCFCFC"></path>
    </g>
</svg>